<?xml version="1.0" encoding="iso-8859-1"?>
<!-- Generator: Adobe Illustrator 19.0.0, SVG Export Plug-In . SVG Version: 6.00 Build 0)  -->
<svg version="1.1" id="Layer_1" xmlns="http://www.w3.org/2000/svg" xmlns:xlink="http://www.w3.org/1999/xlink" x="0px" y="0px"
	 viewBox="0 0 512 512" style="enable-background:new 0 0 512 512;" xml:space="preserve">
<g>
	<g>
		<path d="M399.712,48.301H297.327V10.199C297.327,4.567,292.761,0,287.128,0h-62.256c-5.633,0-10.199,4.567-10.199,10.199v38.102
			H112.288c-5.633,0-10.199,4.567-10.199,10.199v443.3c0,5.632,4.566,10.199,10.199,10.199h287.424
			c5.633,0,10.199-4.567,10.199-10.199v-443.3C409.911,52.869,405.345,48.301,399.712,48.301z M235.071,20.398h41.857v63.324
			h-41.857V20.398z M122.487,491.602V68.7h92.185v25.222c0,5.632,4.566,10.199,10.199,10.199h62.255
			c5.633,0,10.199-4.567,10.199-10.199V68.7h92.185v422.902H122.487z"/>
	</g>
</g>
<g>
	<g>
		<path d="M342.684,355.284h-5.061c-5.633,0-10.199,4.567-10.199,10.199c0,5.632,4.566,10.199,10.199,10.199h5.061
			c5.633,0,10.199-4.567,10.199-10.199C352.883,359.851,348.317,355.284,342.684,355.284z"/>
	</g>
</g>
<g>
	<g>
		<path d="M295.457,355.284H169.316c-5.633,0-10.199,4.567-10.199,10.199c0,5.632,4.566,10.199,10.199,10.199h126.141
			c5.633,0,10.199-4.567,10.199-10.199C305.656,359.851,301.09,355.284,295.457,355.284z"/>
	</g>
</g>
<g>
	<g>
		<path d="M342.684,419.241H169.316c-5.633,0-10.199,4.567-10.199,10.199c0,5.632,4.566,10.199,10.199,10.199h173.368
			c5.633,0,10.199-4.567,10.199-10.199C352.883,423.809,348.317,419.241,342.684,419.241z"/>
	</g>
</g>
<g>
	<g>
		<path d="M291.891,224.427c12.804-10.44,20.999-26.328,20.999-44.099c0-31.37-25.52-56.89-56.89-56.89s-56.89,25.52-56.89,56.89
			c0,17.771,8.195,33.659,20.999,44.099c-21.003,10.372-35.489,32.009-35.489,56.976v17.53c0,5.632,4.566,10.199,10.199,10.199
			h122.364c5.633,0,10.199-4.567,10.199-10.199v-17.53C327.381,256.437,312.895,234.799,291.891,224.427z M219.508,180.327
			c0-20.121,16.37-36.492,36.492-36.492s36.492,16.371,36.492,36.492s-16.37,36.492-36.492,36.492S219.508,200.448,219.508,180.327z
			 M306.983,288.735H205.017v-7.331c0-23.772,19.34-43.112,43.111-43.112h15.744c23.771,0,43.111,19.34,43.111,43.112V288.735z"/>
	</g>
</g>
<g>
</g>
<g>
</g>
<g>
</g>
<g>
</g>
<g>
</g>
<g>
</g>
<g>
</g>
<g>
</g>
<g>
</g>
<g>
</g>
<g>
</g>
<g>
</g>
<g>
</g>
<g>
</g>
<g>
</g>
</svg>
