<?xml version="1.0" ?>
<svg enable-background="new 0 0 196 203.997" id="feedburner" version="1.1" viewBox="0 0 196 203.997"
     xml:space="preserve" xmlns="http://www.w3.org/2000/svg"><g><path d="M134.0819,87.6886c-1.2208-1.004-2.9179-1.1956-4.328-0.4884c-1.4124,0.7032-2.2776,2.1756-2.2092,3.754   c0.0452,1.0156,0.0664,2.0348,0.0664,3.0664c0,25.4412-13.5388,46.1404-30.1816,46.1404   c-16.6424,0-30.1815-20.7384-30.1815-46.2304c0-1.6132-0.9709-3.0704-2.4609-3.6916c-1.4904-0.6172-3.2052-0.2848-4.3556,0.8516   c-10.3144,10.2228-15.996,23.8088-15.996,38.254c0,29.8516,24.5392,54.1408,54.7032,54.1408s54.7028-24.2892,54.7028-54.1408   C153.8415,113.2002,146.6387,98.0166,134.0819,87.6886z M99.1387,175.4854c-25.752,0-46.7032-20.6992-46.7032-46.1408   c0-9.0468,2.6192-17.6992,7.504-25.1092c3.3984,24.992,18.916,43.9256,37.49,43.9256c19.5764,0,35.758-21,37.9336-47.9452   c6.7364,8.164,10.4784,18.3984,10.4784,29.1288C145.8415,154.7862,124.8907,175.4854,99.1387,175.4854z"/><path
        d="M171.4843,134.493c0.0117-1.0936,0.0197-2.238,0.0197-3.4376c0-44.0312-20.9593-55.9216-45.2289-69.6872l-1.8024-1.0236   c-1.2892-0.7384-2.8847-0.6912-4.1367,0.1096c-1.2501,0.8044-1.9533,2.2344-1.8245,3.7148   c1.4005,16.1208-1.576,27.6836-8.8475,34.3748c-5.7149,5.254-13.1037,6.4768-18.0565,6.6252   c5.156-11.8244,15.1344-39.7972,3.4805-57.7656c-12.596-19.426-8.5785-42.4492-8.5373-42.68   c0.3048-1.6716-0.4747-3.3516-1.9472-4.1952c-1.4728-0.8396-3.3124-0.668-4.5995,0.4416   c-0.6937,0.5976-17.2385,15.0468-35.5941,46.5976c-15.32,26.332-15.572,68.5388-15.0232,84.7852   C10.4063,140.0906,0,150.6962,0,162.3914c0,23.332,43.0467,41.6056,98,41.6056c54.9531,0,98-18.2736,98-41.6056   C196,151.833,187.3203,141.9854,171.4843,134.493z M98,195.997c-53.836,0-90-17.3752-90-33.6056   c0-8.5468,9.8083-17.1524,26.912-23.6132c1.6211-0.6132,2.6623-2.1992,2.5819-3.9296c-0.4316-9.1916-1.7928-56.4024,13.8304-83.258   c10.334-17.7656,20.158-29.9764,26.5468-37.0664c0.0604,9.6328,1.914,23.9844,10.5056,37.2308   c12.2364,18.8668-6.2676,54.8668-6.4567,55.2264c-0.588,1.1288-0.6037,2.4728-0.0433,3.6172   c0.5628,1.1404,1.6348,1.9492,2.8888,2.172c0.7188,0.1328,17.8768,3.0232,30.246-8.2776   c7.9788-7.2928,11.9456-18.574,11.832-33.5976c21.5332,12.3672,36.6605,23.3124,36.6605,60.16   c0,2.1448-0.0237,4.1096-0.0625,5.9064c-0.0332,1.6212,0.912,3.1016,2.3945,3.75c14.0859,6.172,22.164,14.0744,22.164,21.6796   C188,178.6218,151.836,195.997,98,195.997z"/></g></svg>